<?xml version="1.0" encoding="UTF-8"?>
<!DOCTYPE svg PUBLIC "-//W3C//DTD SVG 1.1//EN" "http://www.w3.org/Graphics/SVG/1.1/DTD/svg11.dtd">
<!-- Creator: CorelDRAW X7 -->
<svg xmlns="http://www.w3.org/2000/svg" xml:space="preserve" width="190mm" height="82mm" version="1.1" style="shape-rendering:geometricPrecision; text-rendering:geometricPrecision; image-rendering:optimizeQuality; fill-rule:evenodd; clip-rule:evenodd"
viewBox="0 0 19000 8200"
 xmlns:xlink="http://www.w3.org/1999/xlink">
 <defs>
  <style type="text/css">
   <![CDATA[
    .fil3 {fill:#2B2A29}
    .fil2 {fill:#FFED00}
    .fil1 {fill:#E5097F}
    .fil0 {fill:#00A0E3}
    .fil4 {fill:#FEFEFE;fill-rule:nonzero}
   ]]>
  </style>
 </defs>
 <g id="Layer_x0020_1">
  <metadata id="CorelCorpID_0Corel-Layer"/>
  <g id="_513078584">
   <g>
    <rect class="fil0" x="669" y="7861" width="4583" height="339"/>
    <rect class="fil1" x="5252" y="7861" width="4583" height="339"/>
    <rect class="fil2" x="9835" y="7861" width="4583" height="339"/>
    <rect class="fil3" x="14417" y="7861" width="4583" height="339"/>
   </g>
   <path class="fil4" d="M3822 4100c0,1141 -491,2229 -1775,2229 -1214,0 -1751,-987 -1751,-2229 0,-1196 552,-2174 1751,-2174 1277,0 1775,1017 1775,2174zm334 0c0,-1468 -700,-2500 -2093,-2500 -779,0 -1401,388 -1713,1087l-15 0 0 -1010 -335 0 0 6523 335 0 0 -2663 15 0c343,729 942,1110 1713,1110 1401,0 2093,-1056 2093,-2547z"/>
   <path class="fil4" d="M5252 1685l-335 0 0 4884 335 0 0 -4884zm-171 -1685c-179,0 -288,116 -288,349 0,241 109,358 296,358 179,0 288,-117 288,-358 0,-233 -109,-349 -296,-349z"/>
   <polygon class="fil4" points="7768,4116 9481,1677 9068,1677 7807,3479 7574,3867 7558,3867 7325,3479 6071,1677 5659,1677 7364,4108 5636,6569 6048,6569 7332,4729 7558,4348 7574,4348 7792,4729 9076,6569 9496,6569 "/>
   <path class="fil4" d="M10293 3960l39 -39c86,-1094 646,-1995 1806,-1995 1160,0 1689,885 1751,1995l39 31 -3635 8zm3946 202c0,-1281 -529,-2562 -2109,-2562 -1440,0 -2140,1157 -2140,2562 0,1398 653,2485 2179,2485 607,0 1152,-194 1580,-575l-241 -248c-366,326 -833,505 -1347,505 -1206,0 -1767,-831 -1837,-2019l-39 -39 3954 -8 0 0 0 -101z"/>
   <path class="fil4" d="M18318 4084l0 1142c0,870 -1214,1110 -1782,1110 -514,0 -1487,-186 -1487,-1102 0,-684 506,-971 1059,-1111 272,-62 560,-85 848,-101 273,-15 537,-15 755,-15 164,0 491,15 646,39l-39 38zm335 -761c0,-1304 -864,-1716 -1868,-1716 -638,0 -1222,140 -1767,544l234 233c451,-334 1043,-458 1533,-458 825,0 1533,326 1533,1421l0 380 39 39c-171,-31 -490,-54 -708,-54 -1199,0 -2934,39 -2934,1522 0,1025 840,1421 1813,1421 740,0 1448,-257 1775,-715l15 0 0 629 335 0 0 -3246z"/>
  </g>
 </g>
</svg>
